<?xml version="1.0" encoding="UTF-8" standalone="no"?>
<!DOCTYPE svg PUBLIC "-//W3C//DTD SVG 1.1//EN" "http://www.w3.org/Graphics/SVG/1.1/DTD/svg11.dtd">
<svg version="1.1" xmlns="http://www.w3.org/2000/svg" xmlns:xlink="http://www.w3.org/1999/xlink" preserveAspectRatio="xMidYMid meet" viewBox="0 0 640 640" width="640" height="640"><defs><path d="M387.43 678.84C390.29 678.45 393.14 678.02 395.98 677.56C393.14 678.02 390.29 678.45 387.43 678.84Z" id="c1cakcoz86"></path><path d="M398.73 677.11C400.09 676.87 401.45 676.65 402.8 676.4C401.45 676.65 400.09 676.87 398.73 677.11Z" id="goiqgPoSw"></path><path d="M369.78 680.78C373.14 680.5 376.49 680.16 379.81 679.79C376.49 680.16 373.14 680.5 369.78 680.78Z" id="b1rVdi2lvV"></path><path d="M381.55 679.59C383.16 679.4 384.76 679.2 386.36 678.99C384.76 679.2 383.16 679.4 381.55 679.59Z" id="cqT4aUBJP"></path><path d="M408.49 675.31C409.69 675.06 410.89 674.81 412.09 674.55C410.89 674.81 409.69 675.06 408.49 675.31Z" id="b3oJQ31Xin"></path><path d="M432.22 669.64C433.19 669.37 434.16 669.11 435.13 668.83C434.16 669.11 433.19 669.37 432.22 669.64Z" id="bh6MrZsD"></path><path d="M425 671.56C426.05 671.29 427.11 671.02 428.16 670.73C427.11 671.01 426.05 671.29 425 671.56Z" id="l1yT9tYVMi"></path><path d="M415.68 673.77C416.81 673.52 417.93 673.27 419.04 673.01C417.93 673.27 416.81 673.52 415.68 673.77Z" id="agSWdSaAK"></path><path d="M364.28 681.19C366.08 681.07 367.88 680.94 369.68 680.79C367.88 680.94 366.08 681.07 364.28 681.19Z" id="a4jI09qc2p"></path><path d="M320 0C143.3 0 0 143.3 0 320C0 496.7 143.3 640 320 640C321.88 640 323.75 639.96 325.63 639.93C325.63 623.32 325.63 540.28 325.63 390.82L256.88 390.82L256.88 310.7L325.63 310.7C325.63 275.32 325.63 255.67 325.63 251.74C325.63 183.36 367.37 146.14 428.36 146.14C457.57 146.14 482.68 148.32 490 149.29C490 154.06 490 177.88 490 220.76C464.76 220.76 450.74 220.76 447.94 220.76C414.76 220.76 408.33 236.53 408.33 259.67C408.33 263.07 408.33 280.08 408.33 310.7L487.68 310.7L477.33 390.82L408.33 390.82C408.33 532.91 408.33 611.85 408.33 627.64C542.08 589.29 640 466.06 640 320C640 143.3 496.7 0 320 0Z" id="b2tz9NmAy"></path><path d="M352.84 681.77C356.42 681.65 359.98 681.47 363.53 681.24C359.98 681.47 356.42 681.65 352.84 681.77Z" id="a1eO3IQygM"></path><path d="M347 681.92C348.89 681.89 350.78 681.84 352.66 681.78C350.78 681.84 348.89 681.89 347 681.92Z" id="bvEnNOt2P"></path></defs><g><g><g><use xlink:href="#c1cakcoz86" opacity="1" fill="#000000" fill-opacity="1"></use><g><use xlink:href="#c1cakcoz86" opacity="1" fill-opacity="0" stroke="#000000" stroke-width="1" stroke-opacity="0"></use></g></g><g><use xlink:href="#goiqgPoSw" opacity="1" fill="#000000" fill-opacity="1"></use><g><use xlink:href="#goiqgPoSw" opacity="1" fill-opacity="0" stroke="#000000" stroke-width="1" stroke-opacity="0"></use></g></g><g><use xlink:href="#b1rVdi2lvV" opacity="1" fill="#000000" fill-opacity="1"></use><g><use xlink:href="#b1rVdi2lvV" opacity="1" fill-opacity="0" stroke="#000000" stroke-width="1" stroke-opacity="0"></use></g></g><g><use xlink:href="#cqT4aUBJP" opacity="1" fill="#000000" fill-opacity="1"></use><g><use xlink:href="#cqT4aUBJP" opacity="1" fill-opacity="0" stroke="#000000" stroke-width="1" stroke-opacity="0"></use></g></g><g><use xlink:href="#b3oJQ31Xin" opacity="1" fill="#000000" fill-opacity="1"></use><g><use xlink:href="#b3oJQ31Xin" opacity="1" fill-opacity="0" stroke="#000000" stroke-width="1" stroke-opacity="0"></use></g></g><g><use xlink:href="#bh6MrZsD" opacity="1" fill="#000000" fill-opacity="1"></use><g><use xlink:href="#bh6MrZsD" opacity="1" fill-opacity="0" stroke="#000000" stroke-width="1" stroke-opacity="0"></use></g></g><g><use xlink:href="#l1yT9tYVMi" opacity="1" fill="#000000" fill-opacity="1"></use><g><use xlink:href="#l1yT9tYVMi" opacity="1" fill-opacity="0" stroke="#000000" stroke-width="1" stroke-opacity="0"></use></g></g><g><use xlink:href="#agSWdSaAK" opacity="1" fill="#000000" fill-opacity="1"></use><g><use xlink:href="#agSWdSaAK" opacity="1" fill-opacity="0" stroke="#000000" stroke-width="1" stroke-opacity="0"></use></g></g><g><use xlink:href="#a4jI09qc2p" opacity="1" fill="#000000" fill-opacity="1"></use><g><use xlink:href="#a4jI09qc2p" opacity="1" fill-opacity="0" stroke="#000000" stroke-width="1" stroke-opacity="0"></use></g></g><g><use xlink:href="#b2tz9NmAy" opacity="1" fill="#5fcf80" fill-opacity="1"></use><g><use xlink:href="#b2tz9NmAy" opacity="1" fill-opacity="0" stroke="#000000" stroke-width="1" stroke-opacity="0"></use></g></g><g><use xlink:href="#a1eO3IQygM" opacity="1" fill="#000000" fill-opacity="1"></use><g><use xlink:href="#a1eO3IQygM" opacity="1" fill-opacity="0" stroke="#000000" stroke-width="1" stroke-opacity="0"></use></g></g><g><use xlink:href="#bvEnNOt2P" opacity="1" fill="#000000" fill-opacity="1"></use><g><use xlink:href="#bvEnNOt2P" opacity="1" fill-opacity="0" stroke="#000000" stroke-width="1" stroke-opacity="0"></use></g></g></g></g></svg>