<?xml version="1.0" encoding="UTF-8" standalone="no"?>
<!DOCTYPE svg PUBLIC "-//W3C//DTD SVG 1.1//EN" "http://www.w3.org/Graphics/SVG/1.1/DTD/svg11.dtd">
<svg version="1.1" xmlns="http://www.w3.org/2000/svg" xmlns:xlink="http://www.w3.org/1999/xlink" preserveAspectRatio="xMidYMid meet" viewBox="0 0 640 640" width="640" height="640"><defs><path d="M0 320C0 496.7 143.3 640 320 640C496.7 640 640 496.7 640 320C640 143.3 496.7 0 320 0C143.3 0 0 143.3 0 320ZM227.01 483.75L149.08 483.75L149.08 249.28L227.01 249.28L227.01 483.75ZM187.54 217.27C161.39 217.27 144.47 199.26 144.47 176.76C144.47 153.75 161.9 136.25 188.56 136.25C215.22 136.25 231.63 153.75 232.14 176.76C232.14 199.26 215.22 217.27 188.05 217.27C187.95 217.27 187.59 217.27 187.54 217.27ZM508.03 483.75L430.1 483.75C430.1 408.49 430.1 366.68 430.1 358.32C430.1 326.79 418.82 305.29 390.62 305.29C369.09 305.29 356.27 319.79 350.63 333.79C348.57 338.8 348.07 345.81 348.07 352.81C348.07 361.54 348.07 405.19 348.07 483.75C301.31 483.75 275.34 483.75 270.14 483.75C270.14 483.75 271.16 271.28 270.14 249.28C275.34 249.28 301.31 249.28 348.07 249.28C348.07 269.2 348.07 280.27 348.07 282.48C358.43 266.5 376.96 243.78 418.31 243.78C469.58 243.78 508.03 277.29 508.03 349.31C508.03 367.23 508.03 412.05 508.03 483.75Z" id="d3oTo15cKd"></path></defs><g><g><g><use xlink:href="#d3oTo15cKd" opacity="1" fill="#5fcf80" fill-opacity="1"></use><g><use xlink:href="#d3oTo15cKd" opacity="1" fill-opacity="0" stroke="#000000" stroke-width="1" stroke-opacity="0"></use></g></g></g></g></svg>