<?xml version="1.0" encoding="UTF-8" standalone="no"?>
<!DOCTYPE svg PUBLIC "-//W3C//DTD SVG 1.1//EN" "http://www.w3.org/Graphics/SVG/1.1/DTD/svg11.dtd">
<svg version="1.1" xmlns="http://www.w3.org/2000/svg" xmlns:xlink="http://www.w3.org/1999/xlink" preserveAspectRatio="xMidYMid meet" viewBox="0 0 640 640" width="640" height="640"><defs><path d="M280.14 379.95L384.23 320L280.14 260.05L280.14 379.95Z" id="b1i07PjAjK"></path><path d="M0 320C0 496.7 143.3 640 320 640C496.7 640 640 496.7 640 320C640 143.3 496.7 0 320 0C143.3 0 0 143.3 0 320ZM511.72 416.52C507.1 433.65 493.6 447.15 476.47 451.76C445.18 460 320 460 320 460C320 460 195.15 460 163.53 451.44C146.4 446.83 132.9 433.32 128.28 416.19C120.04 385.22 120.04 320 120.04 320C120.04 320 120.04 255.11 128.28 223.81C132.89 206.68 146.73 192.85 163.53 188.24C194.82 180 320 180 320 180C320 180 445.18 180 476.47 188.56C493.6 193.17 507.1 206.68 511.72 223.81C520.28 255.11 519.95 320.33 519.95 320.33C519.95 320.33 519.95 385.22 511.72 416.52Z" id="o5R3JSFszr"></path></defs><g><g><g><use xlink:href="#b1i07PjAjK" opacity="1" fill="#5fcf80" fill-opacity="1"></use><g><use xlink:href="#b1i07PjAjK" opacity="1" fill-opacity="0" stroke="#000000" stroke-width="1" stroke-opacity="0"></use></g></g><g><use xlink:href="#o5R3JSFszr" opacity="1" fill="#5fcf80" fill-opacity="1"></use><g><use xlink:href="#o5R3JSFszr" opacity="1" fill-opacity="0" stroke="#000000" stroke-width="1" stroke-opacity="0"></use></g></g></g></g></svg>