<?xml version="1.0" encoding="utf-8"?>
<!-- Generator: Adobe Illustrator 17.1.0, SVG Export Plug-In . SVG Version: 6.00 Build 0)  -->
<!DOCTYPE svg PUBLIC "-//W3C//DTD SVG 1.1//EN" "http://www.w3.org/Graphics/SVG/1.1/DTD/svg11.dtd">
<svg version="1.1" id="Player_Controls" xmlns="http://www.w3.org/2000/svg" xmlns:xlink="http://www.w3.org/1999/xlink" x="0px"
	 y="0px" viewBox="0 0 240 123" width="240px" height="123px" style="enable-background:new 0 0 240 123;" xml:space="preserve">
<style type="text/css">
	.st0{fill:#FFFFFF;}
</style>
<path id="Replay" class="st0" d="M189.6,23L189.6,23c-14.2,0-27.9,6-37.4,16.5c-3.4,3.7-3.1,9.5,0.6,12.9c3.8,3.4,9.6,3.1,13-0.7
	c6-6.7,14.7-10.5,23.7-10.5l0,0c17.6,0,32,14.2,32,31.7s-14.3,31.7-32,31.7c-13.7,0-25.4-8.7-30-20.8l8.1,3.6
	c4.6,2.1,10.1,0,12.2-4.6c2.1-4.6,0-10-4.6-12.1l-23.5-10.5c-3.8-1.7-8.2-0.7-10.8,2.5l-16.8,19.9c-3.3,3.9-2.8,9.6,1.1,12.9
	c1.7,1.4,3.8,2.1,5.9,2.1c2.6,0,5.3-1.1,7.1-3.3l3.9-4.7c7,19.3,25.6,33.2,47.4,33.2c27.8,0,50.4-22.4,50.4-50
	C240,45.4,217.4,23,189.6,23z"/>
<g id="Play_1_">
	<g>
		<path class="st0" d="M50,18c17.6,0,32,14.4,32,32S67.6,82,50,82S18,67.6,18,50S32.4,18,50,18 M50,0C22.4,0,0,22.4,0,50
			s22.4,50,50,50s50-22.4,50-50S77.6,0,50,0L50,0z"/>
	</g>
	<path id="Bigger_Play" class="st0" d="M45.2,32c-3.3-2.3-6.2-0.7-6.2,3.6v28c0,4.3,2.9,5.9,6.2,3.6l19.4-13.4
		c3.3-2.3,3.2-6.1,0-8.4L45.2,32z"/>
</g>
<path id="Play" class="st0" d="M103.1,22.5c-1.7-1.1-3.1-0.3-3.1,1.7v13.5c0,2.1,1.4,2.8,3.1,1.7l9.7-6.5c1.7-1.1,1.6-2.9,0-4
	L103.1,22.5z"/>
<g id="Pause">
	<g>
		<path class="st0" d="M151.5,18c-1.4,0-2.5-1.2-2.5-2.6V2.6c0-1.4,1.1-2.6,2.5-2.6s2.5,1.2,2.5,2.6v12.9
			C154,16.8,152.9,18,151.5,18z"/>
	</g>
	<g>
		<path class="st0" d="M161.5,18c-1.4,0-2.5-1.2-2.5-2.6V2.6c0-1.4,1.1-2.6,2.5-2.6s2.5,1.2,2.5,2.6v12.9
			C164,16.8,162.9,18,161.5,18z"/>
	</g>
</g>
<path id="Closed_Captions" class="st0" d="M146,0h-21c-1.7,0-3,1.3-3,3v15c0,1.7,1.3,3,3,3h21c1.7,0,3-1.3,3-3V3
	C149,1.3,147.7,0,146,0z M129.2,11.2c0.1,1.1,0.7,1.8,1.8,1.8c0.6,0,1.2-0.3,1.5-0.9c0.2-0.3,0.4-0.6,0.9-0.6s1.1,0.4,1.1,1
	c0,0.2,0,0.3-0.1,0.6c-0.6,1.3-2,1.9-3.4,1.9c-2.2,0-3.8-1.6-3.9-3.5c-0.1-0.7-0.1-1.3,0-1.9c0.2-2,1.7-3.5,3.9-3.5
	c1.4,0,2.8,0.6,3.4,1.9c0.1,0.3,0.1,0.4,0.1,0.6c0,0.6-0.6,1-1.1,1s-0.7-0.3-0.9-0.6c-0.4-0.7-0.9-1-1.5-1c-1.1,0-1.7,0.8-1.8,1.9
	C129.2,10.3,129.2,10.8,129.2,11.2z M138.2,11.2c0.1,1.1,0.7,1.8,1.8,1.8c0.6,0,1.2-0.3,1.5-0.9c0.2-0.3,0.4-0.6,0.9-0.6
	s1.1,0.4,1.1,1c0,0.2,0,0.3-0.1,0.6c-0.6,1.3-2,1.9-3.4,1.9c-2.2,0-3.8-1.6-3.9-3.5c-0.1-0.7-0.1-1.3,0-1.9c0.2-2,1.7-3.5,3.9-3.5
	c1.4,0,2.8,0.6,3.4,1.9c0.1,0.3,0.1,0.4,0.1,0.6c0,0.6-0.6,1-1.1,1s-0.7-0.3-0.9-0.6c-0.4-0.7-0.9-1-1.5-1c-1.1,0-1.7,0.8-1.8,1.9
	C138.2,10.3,138.2,10.8,138.2,11.2z"/>
<g id="Volume">
	<path class="st0" d="M100,12.8c0,0.7,0.6,1.3,1.3,1.3h2.1l6.5,4.7c0.6,0.4,1.1,0.2,1.1-0.5V2.7c0-0.7-0.5-0.9-1.1-0.5l-6.5,4.7
		h-2.1c-0.7,0-1.3,0.6-1.3,1.3V12.8z"/>
	<path class="st0" d="M114.4,3.8c-0.4-0.4-1.1-0.4-1.5,0s-0.4,1.1,0,1.6l0,0c1.4,1.4,2.1,3.3,2.1,5.1c0,1.9-0.7,3.7-2.1,5.1
		c-0.4,0.4-0.4,1.1,0,1.6c0.2,0.2,0.5,0.3,0.8,0.3s0.6-0.1,0.8-0.3c1.8-1.8,2.7-4.3,2.7-6.7C117.1,8.1,116.2,5.7,114.4,3.8z"/>
	<path class="st0" d="M117.8,0.3c-0.4-0.4-1.1-0.4-1.5,0s-0.4,1.1,0,1.6l0,0c2.4,2.4,3.5,5.5,3.5,8.6s-1.2,6.2-3.5,8.6
		c-0.4,0.4-0.4,1.1,0,1.6c0.2,0.2,0.5,0.3,0.8,0.3s0.6-0.1,0.8-0.3c2.8-2.8,4.2-6.5,4.2-10.2C122,6.8,120.6,3.1,117.8,0.3z"/>
</g>
<g id="Fullscreen">
	<path class="st0" d="M121,48.4l-1-6c-0.1-0.7-0.7-1.2-1.3-1.3l-6-1c-0.9-0.1-1.7,0.5-1.9,1.3c-0.1,0.9,0.5,1.7,1.3,1.9l2.8,0.5
		l-3.6,3.6c-0.6,0.6-0.6,1.7,0,2.3c0.3,0.3,0.7,0.5,1.2,0.5s0.8-0.2,1.2-0.5l3.7-3.7l0.5,3c0.1,0.8,0.8,1.4,1.6,1.4
		c0.1,0,0.2,0,0.3,0C120.5,50.1,121.1,49.3,121,48.4z"/>
	<path class="st0" d="M108.9,57.8l-3-0.5l3.7-3.7c0.6-0.6,0.6-1.7,0-2.3s-1.7-0.6-2.3,0l-3.6,3.6l-0.5-2.8c-0.1-0.9-1-1.5-1.9-1.3
		c-0.9,0.1-1.5,1-1.3,1.9l1,6c0.1,0.7,0.7,1.2,1.3,1.3l6,1c0.1,0,0.2,0,0.3,0c0.8,0,1.5-0.6,1.6-1.4
		C110.4,58.7,109.8,57.9,108.9,57.8z"/>
</g>
<path id="Arrow" d="M122,62c-2.2,0-9.1,7.9-11,8l0,0l0,0l0,0l0,0c-1.9-0.1-8.8-8-11-8h11l0,0H122z"/>
<path id="Speedometer" class="st0" d="M174.5,21c-5.8,0-10.5-4.7-10.5-10.5S168.7,0,174.5,0c5.9,0,10.5,4.7,10.5,10.5
	S180.4,21,174.5,21z M174.5,3c-4.1,0-7.5,3.4-7.5,7.5s3.4,7.5,7.5,7.5s7.5-3.4,7.5-7.5S178.6,3,174.5,3z M180.5,11h-1
	c-0.3,0-0.5-0.2-0.5-0.5s0.2-0.5,0.5-0.5h1c0.3,0,0.5,0.2,0.5,0.5S180.8,11,180.5,11z M178.4,7.3c-0.2,0.2-0.5,0.2-0.7,0
	s-0.2-0.5,0-0.7l0.7-0.7c0.2-0.2,0.5-0.2,0.7,0s0.2,0.5,0,0.7L178.4,7.3z M174,16.8c-1.1-0.2-1.8-1.2-1.6-2.3s2.8-6.9,3.3-6.8
	s0.8,6.4,0.6,7.5S175.1,17,174,16.8z M174.6,13.9c-0.5-0.1-1,0.2-1.1,0.7s0.2,1,0.7,1.1s1-0.2,1.1-0.7
	C175.4,14.5,175.1,14,174.6,13.9z M174.5,6c-0.3,0-0.5-0.2-0.5-0.5v-1c0-0.3,0.2-0.5,0.5-0.5s0.5,0.2,0.5,0.5v1
	C175,5.8,174.8,6,174.5,6z M170.6,15.1c-0.2,0.2-0.5,0.2-0.7,0s-0.2-0.5,0-0.7l0.7-0.7c0.2-0.2,0.5-0.2,0.7,0s0.2,0.5,0,0.7
	L170.6,15.1z M170.6,7.3l-0.7-0.7c-0.2-0.2-0.2-0.5,0-0.7s0.5-0.2,0.7,0l0.7,0.7c0.2,0.2,0.2,0.5,0,0.7S170.8,7.5,170.6,7.3z
	 M170,10.5c0,0.3-0.2,0.5-0.5,0.5h-1c-0.3,0-0.5-0.2-0.5-0.5s0.2-0.5,0.5-0.5h1C169.8,10,170,10.2,170,10.5z M178.4,13.7l0.7,0.7
	c0.2,0.2,0.2,0.5,0,0.7s-0.5,0.2-0.7,0l-0.7-0.7c-0.2-0.2-0.2-0.5,0-0.7S178.2,13.5,178.4,13.7z"/>
<g id="Rewind">
	<g>
		<path class="st0" d="M189.82,6.6c0.32,0.28,0.75,0.43,1.18,0.43V4.78l-0.64-0.54c-0.49-0.41-0.49-1.06,0-1.47L191,2.24V0
			c-0.43,0-0.85,0.14-1.18,0.43l-2.35,2.06c-0.65,0.57-0.65,1.49,0,2.06L189.82,6.6z M196,2.04V0c-0.43,0-0.85,0.14-1.18,0.43
			l-2.35,2.06c-0.65,0.57-0.65,1.49,0,2.06l2.35,2.06c0.32,0.28,0.75,0.43,1.18,0.43V5.04c3.91,0.26,7,3.5,7,7.47
			c0,4.14-3.36,7.5-7.5,7.5c-3.97,0-7.22-3.09-7.47-7H188c0-0.83-0.67-1.5-1.5-1.5c-0.83,0-1.5,0.67-1.5,1.5h0.03
			c0.26,5.57,4.84,10,10.47,10c5.8,0,10.5-4.7,10.5-10.5C206,6.88,201.57,2.3,196,2.04z M197.34,16c1.59,0,2.65-1.57,2.65-3.5v-0.02
			c0-1.93-1.05-3.48-2.63-3.48c-1.59,0-2.65,1.57-2.65,3.5v0.02C194.71,14.45,195.75,16,197.34,16z M195.81,12.48
			c0-1.34,0.6-2.41,1.53-2.41s1.55,1.09,1.55,2.43v0.02c0,1.32-0.59,2.41-1.53,2.41c-0.94,0-1.55-1.09-1.55-2.43V12.48z
			 M192.49,16.04c0.34,0,0.61-0.27,0.61-0.61V9.57c0-0.34-0.26-0.61-0.61-0.61h-0.02c-0.18,0-0.36,0.04-0.6,0.11l-1.06,0.34
			c-0.25,0.07-0.41,0.27-0.41,0.53c0,0.28,0.25,0.52,0.54,0.52c0.06,0,0.15-0.01,0.22-0.03l0.72-0.22v5.21
			C191.88,15.77,192.16,16.04,192.49,16.04z"/>
	</g>
</g>
</svg>
